<svg width="72" height="72" viewBox="0 0 72 72" fill="none" xmlns="http://www.w3.org/2000/svg">
<path fill-rule="evenodd" clip-rule="evenodd" d="M41 5H31V3H41V5ZM57 9H15V7H29V5H31V7H41V5H43V7H57V9ZM15 13V9H13V15H15L15 65H17L17 67H55V65H57V15H59V9H57V13H15ZM55 15V65H17L17 15H55ZM25 21V19H27V21H25ZM25 59H23V21H25V59ZM25 59V61H27V59H25ZM33 21V19H35V21H33ZM33 59H31V21H33V59ZM33 59V61H35V59H33ZM41 21V19H43V21H41ZM41 59H39V21H41V59ZM41 59V61H43V59H41ZM49 21V19H51V21H49ZM49 59H47V21H49V59ZM49 59V61H51V59H49Z" fill="#404040"/>
</svg>
