<svg width="72" height="72" viewBox="0 0 72 72" fill="none" xmlns="http://www.w3.org/2000/svg">
<path fill-rule="evenodd" clip-rule="evenodd" d="M48 5H50V3H48V5ZM64 5H66V3H64V5ZM62 7H64V5H62V7ZM60 9V7H62V9H60ZM60 9V11H58V9H60ZM50 9H52V7H50V9ZM40 11H42V9H40V11ZM44 13H46V11H44V13ZM52 13H54V11H52V13ZM48 15H50V13H48V15ZM30 17H40V19H44V21H50V19H56V17H50V19H44V17H40V15H30V17ZM28 19H30V17H28V19ZM28 25V19H26V25H20V31H16V33H12V37H10V41H8V55H10V59H12V63H16V65H20V67H34V65H38V63H42V59H44V55H46V41H44V37H42V33H38V31H34V25H28ZM60 17H62V15H60V17ZM64 17H66V15H64V17ZM68 17H70V15H68V17ZM60 23H62V25H64V27H66V29H68V27H66V25H64V23H62V21H60V23ZM48 25H50V23H48V25ZM46 27H48V25H46V27ZM46 27V29H44V27H46ZM54 25H56V23H54V25ZM54 29H56V27H54V29ZM54 33H56V31H54V33ZM16 41V43H18V41H16ZM16 55V53H18V55H16ZM20 57V59H22V57H20ZM14 51L14 45H16L16 51H14Z" fill="#404040"/>
</svg>
