<svg width="72" height="72" viewBox="0 0 72 72" fill="none" xmlns="http://www.w3.org/2000/svg">
<path fill-rule="evenodd" clip-rule="evenodd" d="M56 52V44H58V52H56Z" fill="#404040"/>
<path fill-rule="evenodd" clip-rule="evenodd" d="M54 44V36H56V44H54Z" fill="#404040"/>
<path fill-rule="evenodd" clip-rule="evenodd" d="M58 32V30H60V32H58Z" fill="#404040"/>
<path fill-rule="evenodd" clip-rule="evenodd" d="M56 36V32H58V36H56Z" fill="#404040"/>
<path fill-rule="evenodd" clip-rule="evenodd" d="M56 26V24H58V26H56Z" fill="#404040"/>
<path fill-rule="evenodd" clip-rule="evenodd" d="M54 28V26H56V28H54Z" fill="#404040"/>
<path fill-rule="evenodd" clip-rule="evenodd" d="M58 20H60V22H62V30H60V24H58V20Z" fill="#404040"/>
<path fill-rule="evenodd" clip-rule="evenodd" d="M28 52V44H30V52H28Z" fill="#404040"/>
<path fill-rule="evenodd" clip-rule="evenodd" d="M26 54V52H28V54H26Z" fill="#404040"/>
<path fill-rule="evenodd" clip-rule="evenodd" d="M54 54V52H56V54H54Z" fill="#404040"/>
<path fill-rule="evenodd" clip-rule="evenodd" d="M46 46V44H48V46H46Z" fill="#404040"/>
<path fill-rule="evenodd" clip-rule="evenodd" d="M48 48V46H50V48H48Z" fill="#404040"/>
<path fill-rule="evenodd" clip-rule="evenodd" d="M50 52V48H52V52H50Z" fill="#404040"/>
<path fill-rule="evenodd" clip-rule="evenodd" d="M48 52H50V54H54V56H48V52Z" fill="#404040"/>
<path fill-rule="evenodd" clip-rule="evenodd" d="M30 42H46V44H30V42Z" fill="#404040"/>
<path fill-rule="evenodd" clip-rule="evenodd" d="M22 54V52H20V56H26V54H22Z" fill="#404040"/>
<path fill-rule="evenodd" clip-rule="evenodd" d="M22 32H26V34H28V38H26V40H24V52H22V32Z" fill="#404040"/>
<path fill-rule="evenodd" clip-rule="evenodd" d="M22 28V32H20V28H22Z" fill="#404040"/>
<path fill-rule="evenodd" clip-rule="evenodd" d="M12 26H20V28H12V26Z" fill="#404040"/>
<path fill-rule="evenodd" clip-rule="evenodd" d="M12 24V26H10L10 24H12Z" fill="#404040"/>
<path fill-rule="evenodd" clip-rule="evenodd" d="M14 22V24H12V22H14Z" fill="#404040"/>
<path fill-rule="evenodd" clip-rule="evenodd" d="M16 20V22H14V20H16Z" fill="#404040"/>
<path fill-rule="evenodd" clip-rule="evenodd" d="M18 18V20H16V18H18Z" fill="#404040"/>
<path fill-rule="evenodd" clip-rule="evenodd" d="M20 14V18H18V14H20Z" fill="#404040"/>
<path fill-rule="evenodd" clip-rule="evenodd" d="M24 16L24 14H22L22 18H26V16H24Z" fill="#404040"/>
<path fill-rule="evenodd" clip-rule="evenodd" d="M22 12L22 14H20V12L22 12Z" fill="#404040"/>
<path fill-rule="evenodd" clip-rule="evenodd" d="M28 20V24H26V20H28Z" fill="#404040"/>
<path fill-rule="evenodd" clip-rule="evenodd" d="M30 24V26H28V24H30Z" fill="#404040"/>
<path fill-rule="evenodd" clip-rule="evenodd" d="M30 26H34V28H30V26Z" fill="#404040"/>
<path fill-rule="evenodd" clip-rule="evenodd" d="M22 20V22H20V20H22Z" fill="#404040"/>
<path fill-rule="evenodd" clip-rule="evenodd" d="M26 14H30V20H28V16H26V14Z" fill="#404040"/>
<path fill-rule="evenodd" clip-rule="evenodd" d="M34 28V32H36V34H40V36H46V34H48V30H54V28H34Z" fill="#404040"/>
</svg>
