<svg width="72" height="72" viewBox="0 0 72 72" fill="none" xmlns="http://www.w3.org/2000/svg">
<path fill-rule="evenodd" clip-rule="evenodd" d="M12 4H50V6H52V8H50V16H58V14H60V16H62V68H12V4ZM56 12H58V14H56V12ZM56 12V10H54V8H52V10H54V12H56ZM14 6V66H60V18H48V6H14ZM18 14V12H20V14H18ZM30 14V12H32V14H30ZM42 14V12H44V14H42ZM30 18H44V24H50V38H36V32H30V18ZM36 30V24H42V20H32V30H36ZM18 26V24H20V26H18ZM38 26V36H48V26H38ZM56 26H54V24H56V26ZM18 38V36H20V38H18ZM30 38V36H32V38H30ZM56 38H54V36H56V38ZM18 50V48H20V50H18ZM34 48V50H28V48H34ZM26 52V50H28V52H26ZM26 58H24V52H26V58ZM28 60H26V58H28V60ZM34 60V62H28V60H34ZM36 58V60H34V58H36ZM36 52V50H34V52H36ZM36 52V58H38V52H36ZM42 50V48H44V50H42ZM54 50V48H56V50H54ZM18 62V60H20V62H18ZM42 62V60H44V62H42ZM54 62V60H56V62H54Z" fill="#404040"/>
</svg>
