<svg width="72" height="72" viewBox="0 0 72 72" fill="none" xmlns="http://www.w3.org/2000/svg">
<path fill-rule="evenodd" clip-rule="evenodd" d="M12 4H50V6H52V8H50V16H58V14H60V16H62V68H12V4ZM56 12H58V14H56V12ZM56 12V10H54V8H52V10H54V12H56ZM14 6V66H60V18H48V16H42V14H48V6H14ZM30 16H24V14H30V16ZM40 16H32V14H40V16ZM26 20H20V18H26V20ZM34 20H28V18H34V20ZM46 20H36V18H46V20ZM30 24H20V22H30V24ZM44 24H32V22H44V24ZM54 22V24H46V22H54ZM26 28H20V26H26V28ZM34 28H28V26H34V28ZM42 28H36V26H42V28ZM52 26V28H44V26H52ZM32 32V34H24V32H32ZM42 34H34V32H42V34ZM54 32V34H44V32H54ZM28 36V38H20V36H28ZM38 36V38H30V36H38ZM48 36V38H40V36H48ZM54 36V38H50V36H54ZM24 42H20V40H24V42ZM34 40V42H26V40H34ZM44 40V42H36V40H44ZM54 40V42H46V40H54ZM28 44V46H20V44H28ZM40 46H30V44H40V46ZM50 44V46H42V44H50ZM32 50V52H24V50H32ZM40 52H34V50H40V52ZM46 50V52H42V50H46ZM54 52H48V50H54V52ZM28 54V56H20V54H28ZM36 56H30V54H36V56ZM44 56H38V54H44V56ZM54 54V56H46V54H54ZM26 60H20V58H26V60ZM38 60H28V58H38V60ZM48 58V60H40V58H48ZM54 58V60H50V58H54Z" fill="#4F4F4F"/>
</svg>
