<svg width="28" height="28" viewBox="0 0 28 28" fill="none" xmlns="http://www.w3.org/2000/svg">
<rect x="2.3" y="2.3" width="23.4" height="23.4" fill="#D9D9D9" stroke="#4F4F4F" stroke-width="0.6"/>
<mask id="path-2-outside-1_60_193" maskUnits="userSpaceOnUse" x="8.29027" y="9" width="9.70973" height="11.679" fill="black">
<rect fill="white" x="8.29027" y="9" width="9.70973" height="11.679"/>
<path d="M12.3574 19.7806H9.86741L14.8085 9.67379H17.2985L12.3574 19.7806Z"/>
</mask>
<path d="M12.3574 19.7806H9.86741L14.8085 9.67379H17.2985L12.3574 19.7806Z" fill="black"/>
<path d="M12.3574 19.7806L12.2696 19.9603H12.4696L12.5574 19.7806H12.3574ZM9.86741 19.7806H9.66741L9.57957 19.9603H9.77957L9.86741 19.7806ZM14.8085 9.67379L14.8964 9.49411H14.6964L14.6085 9.67379H14.8085ZM17.2985 9.67379H17.4985L17.5864 9.49411H17.3864L17.2985 9.67379ZM12.4453 19.6009H9.95526L9.77957 19.9603H12.2696L12.4453 19.6009ZM10.0674 19.7806L15.0085 9.67379H14.6085L9.66741 19.7806H10.0674ZM14.7207 9.85346H17.2107L17.3864 9.49411H14.8964L14.7207 9.85346ZM17.0985 9.67379L12.1574 19.7806H12.5574L17.4985 9.67379H17.0985Z" fill="black" mask="url(#path-2-outside-1_60_193)"/>
</svg>
