<svg width="72" height="72" viewBox="0 0 72 72" fill="none" xmlns="http://www.w3.org/2000/svg">
<path fill-rule="evenodd" clip-rule="evenodd" d="M56 6H16V4H56.5V6H58V8H56V6ZM58 58V8H60V58H58ZM14 58L58 58V68H14L14 58ZM14 8L14 58H12L12 8H14ZM14 8H16V6H14V8ZM52 12H20V10H52V12ZM52 38V12H54V38H52ZM20 38H52V40H20V38ZM20 38H18V12H20V38ZM27 22V18H29V22H27ZM35 27V18H37V29H33V27H35ZM41 22V18H43V22H41ZM29 33V31H31V33H29ZM39 33V35H31V33H39ZM39 33H41V31H39V33ZM52 50H40V48H52V50ZM22 50V52H18V50H22ZM16 60V66H56V60H16Z" fill="#404040"/>
</svg>
