<svg width="28" height="28" viewBox="0 0 28 28" fill="none" xmlns="http://www.w3.org/2000/svg">
<rect x="2.3" y="2.3" width="23.4" height="23.4" fill="#D9D9D9" stroke="#4F4F4F" stroke-width="0.6"/>
<mask id="path-2-outside-1_60_190" maskUnits="userSpaceOnUse" x="8" y="8" width="12" height="15" fill="black">
<rect fill="white" x="8" y="8" width="12" height="15"/>
<path d="M12.7476 8.75V18.755H15.2526V8.75H17.7426V17.465C17.7426 17.785 17.6726 18.1 17.5326 18.41C17.4026 18.71 17.2226 18.98 16.9926 19.22C16.7626 19.45 16.4926 19.64 16.1826 19.79C15.8726 19.93 15.5426 20 15.1926 20H12.8076C12.4576 20 12.1276 19.93 11.8176 19.79C11.5076 19.64 11.2376 19.45 11.0076 19.22C10.7776 18.98 10.5926 18.71 10.4526 18.41C10.3226 18.1 10.2576 17.785 10.2576 17.465V8.75H12.7476Z"/>
<path d="M8.99756 21.875H19.0026V22.625H8.99756V21.875Z"/>
</mask>
<path d="M12.7476 8.75V18.755H15.2526V8.75H17.7426V17.465C17.7426 17.785 17.6726 18.1 17.5326 18.41C17.4026 18.71 17.2226 18.98 16.9926 19.22C16.7626 19.45 16.4926 19.64 16.1826 19.79C15.8726 19.93 15.5426 20 15.1926 20H12.8076C12.4576 20 12.1276 19.93 11.8176 19.79C11.5076 19.64 11.2376 19.45 11.0076 19.22C10.7776 18.98 10.5926 18.71 10.4526 18.41C10.3226 18.1 10.2576 17.785 10.2576 17.465V8.75H12.7476Z" fill="black"/>
<path d="M8.99756 21.875H19.0026V22.625H8.99756V21.875Z" fill="black"/>
<path d="M12.7476 8.75H12.9476V8.55H12.7476V8.75ZM12.7476 18.755H12.5476V18.955H12.7476V18.755ZM15.2526 18.755V18.955H15.4526V18.755H15.2526ZM15.2526 8.75V8.55H15.0526V8.75H15.2526ZM17.7426 8.75H17.9426V8.55H17.7426V8.75ZM17.5326 18.41L17.3503 18.3277L17.349 18.3305L17.5326 18.41ZM16.9926 19.22L17.134 19.3615L17.137 19.3584L16.9926 19.22ZM16.1826 19.79L16.2649 19.9723L16.2697 19.97L16.1826 19.79ZM11.8176 19.79L11.7304 19.9701L11.7352 19.9723L11.8176 19.79ZM11.0076 19.22L10.8631 19.3584L10.8661 19.3614L11.0076 19.22ZM10.4526 18.41L10.268 18.4874L10.2713 18.4946L10.4526 18.41ZM10.2576 8.75V8.55H10.0576V8.75H10.2576ZM12.5476 8.75V18.755H12.9476V8.75H12.5476ZM12.7476 18.955H15.2526V18.555H12.7476V18.955ZM15.4526 18.755V8.75H15.0526V18.755H15.4526ZM15.2526 8.95H17.7426V8.55H15.2526V8.95ZM17.5426 8.75V17.465H17.9426V8.75H17.5426ZM17.5426 17.465C17.5426 17.7548 17.4794 18.0419 17.3503 18.3277L17.7148 18.4923C17.8658 18.1581 17.9426 17.8152 17.9426 17.465H17.5426ZM17.349 18.3305C17.2286 18.6083 17.062 18.8585 16.8482 19.0816L17.137 19.3584C17.3831 19.1015 17.5765 18.8117 17.7161 18.4895L17.349 18.3305ZM16.8511 19.0786C16.6379 19.2919 16.3865 19.4691 16.0954 19.61L16.2697 19.97C16.5986 19.8109 16.8873 19.6081 17.134 19.3614L16.8511 19.0786ZM16.1002 19.6077C15.8169 19.7357 15.515 19.8 15.1926 19.8V20.2C15.5701 20.2 15.9282 20.1243 16.2649 19.9723L16.1002 19.6077ZM15.1926 19.8H12.8076V20.2H15.1926V19.8ZM12.8076 19.8C12.4851 19.8 12.1832 19.7357 11.8999 19.6077L11.7352 19.9723C12.0719 20.1243 12.43 20.2 12.8076 20.2V19.8ZM11.9047 19.61C11.6136 19.4691 11.3623 19.2919 11.149 19.0786L10.8661 19.3614C11.1129 19.6081 11.4015 19.8109 11.7304 19.97L11.9047 19.61ZM11.152 19.0816C10.937 18.8574 10.7645 18.6055 10.6338 18.3254L10.2713 18.4946C10.4206 18.8145 10.6181 19.1026 10.8632 19.3584L11.152 19.0816ZM10.637 18.3327C10.5167 18.0459 10.4576 17.7571 10.4576 17.465H10.0576C10.0576 17.8129 10.1284 18.1541 10.2681 18.4873L10.637 18.3327ZM10.4576 17.465V8.75H10.0576V17.465H10.4576ZM10.2576 8.95H12.7476V8.55H10.2576V8.95Z" fill="black" mask="url(#path-2-outside-1_60_190)"/>
<path d="M8.99756 21.875V21.675H8.79756V21.875H8.99756ZM19.0026 21.875H19.2026V21.675H19.0026V21.875ZM19.0026 22.625V22.825H19.2026V22.625H19.0026ZM8.99756 22.625H8.79756V22.825H8.99756V22.625ZM8.99756 22.075H19.0026V21.675H8.99756V22.075ZM18.8026 21.875V22.625H19.2026V21.875H18.8026ZM19.0026 22.425H8.99756V22.825H19.0026V22.425ZM9.19756 22.625V21.875H8.79756V22.625H9.19756Z" fill="black" mask="url(#path-2-outside-1_60_190)"/>
</svg>
